<?xml version="1.0" encoding="UTF-8"?>
<svg width="180px" height="24px" viewBox="0 0 180 24" version="1.1" xmlns="http://www.w3.org/2000/svg" xmlns:xlink="http://www.w3.org/1999/xlink">
    <!-- Generator: Sketch 52.5 (67469) - http://www.bohemiancoding.com/sketch -->
    <title>logo/waves180-white</title>
    <desc>Created with Sketch.</desc>
    <g id="logo/waves180-white" stroke="none" stroke-width="1" fill="none" fill-rule="evenodd">
        <g>
            <polygon id="brand-elem" fill="#3F7AFF" transform="translate(100.320126, 6.089219) rotate(45.000000) translate(-100.320126, -6.089219) " points="96.3454048 2.07434944 104.294847 2.07434944 104.294847 10.1040892 96.3454048 10.1040892"></polygon>
            <path d="M116.606275,23.8158067 C111.395777,23.8158067 108.208773,19.8952862 108.208773,14.3053829 C108.208773,8.71547955 111.395777,4.82025279 116.606275,4.82025279 C121.816773,4.82025279 125.003777,8.71547955 125.003777,14.3053829 C125.003777,19.8952862 121.816773,23.8158067 116.606275,23.8158067 Z M116.606275,22.1970112 C120.375033,22.1970112 123.207926,19.3388253 123.207926,14.3053829 C123.207926,9.27194052 120.375033,6.43904833 116.606275,6.43904833 C112.837517,6.43904833 110.004625,9.27194052 110.004625,14.3053829 C110.004625,19.3388253 112.837517,22.1970112 116.606275,22.1970112 Z M133.881859,11.4724907 C133.628922,11.447197 133.401279,11.447197 133.173636,11.447197 C130.366037,11.447197 129.455465,13.4706914 129.455465,16.354171 L129.455465,23.4869888 L127.91255,23.4869888 L127.91255,9.87898885 L129.404877,9.87898885 L129.404877,12.3577695 C130.011926,10.7642677 131.782483,9.77781413 133.426572,9.77781413 C133.553041,9.77781413 133.730097,9.77781413 133.881859,9.80310781 L133.881859,11.4724907 Z M144.353442,21.4129071 C143.468164,22.8546468 141.773487,23.8158067 139.244119,23.8158067 C136.714751,23.8158067 134.741844,22.3487732 134.741844,20.0976357 C134.741844,17.0118067 137.777086,15.8735911 144.328149,15.2159554 L144.328149,14.7353755 C144.328149,11.6495465 142.507004,10.9666171 140.534097,10.9666171 C138.232372,10.9666171 136.841219,12.2565948 136.714751,14.0271524 L135.070662,14.0271524 C135.424773,11.3460223 137.60003,9.57546468 140.635271,9.57546468 C143.796981,9.57546468 145.896357,10.8907361 145.896357,14.9377249 C145.896357,16.8094572 145.871063,18.0488476 145.871063,19.1364758 C145.871063,20.6793903 145.946944,22.0199554 146.022825,23.4869888 L144.429323,23.4869888 L144.353442,21.4129071 Z M139.59823,22.4246543 C142.127599,22.4246543 144.40403,21.1346766 144.40403,17.2647435 L144.40403,16.6071078 C138.864714,17.2141561 136.487108,17.9476729 136.487108,20.072342 C136.487108,21.5140818 137.802379,22.4246543 139.59823,22.4246543 Z M159.959643,14.2547955 L158.315554,14.2547955 C157.80968,12.2060074 156.190885,11.0930855 154.217978,11.0930855 C151.865665,11.0930855 149.791584,12.9648178 149.791584,16.7082825 C149.791584,20.5782156 151.865665,22.3740669 154.243271,22.3740669 C156.57029,22.3740669 158.037323,20.8817398 158.416729,19.1870632 L160.086112,19.1870632 C159.529651,21.9946617 157.253219,23.8158067 154.243271,23.8158067 C150.373338,23.8158067 148.122201,20.9323271 148.122201,16.7335762 C148.122201,12.5095316 150.398632,9.65134572 154.36974,9.65134572 C157.455569,9.65134572 159.554944,11.8013086 159.959643,14.2547955 Z M164.183688,23.4869888 L162.61548,23.4869888 L162.61548,5.14907063 L164.183688,5.14907063 L164.183688,23.4869888 Z M166.915405,16.7335762 C166.915405,12.3324758 169.647123,9.65134572 173.289413,9.65134572 C177.134052,9.65134572 179.562245,12.8889368 179.359896,17.1382751 L168.534201,17.1382751 C168.584788,20.4264535 170.65887,22.3740669 173.441175,22.3740669 C175.565844,22.3740669 177.058171,21.2864387 177.589338,19.4147063 L179.233428,19.4147063 C178.575792,22.2223048 176.324654,23.8158067 173.34,23.8158067 C169.343599,23.8158067 166.915405,20.9576208 166.915405,16.7335762 Z M168.584788,15.6965353 L177.639926,15.6965353 C177.639926,13.3948104 175.995836,11.0677918 173.264119,11.0677918 C170.734751,11.0677918 168.913606,12.6865874 168.584788,15.6965353 Z M24.7248041,6.47980173 L24.928636,6.77472119 L19.9347555,22.7635688 L19.5882413,23.0795539 L16.4084644,23.0795539 L16.0619502,22.7635688 L12.4745096,11.3249071 L12.3929768,11.3249071 L8.82591936,22.7635688 L8.4794052,23.0795539 L5.34039462,23.0795539 L4.99388047,22.7635688 L-5.47117907e-13,6.77472119 L0.203831856,6.47980173 L3.38360881,6.47980173 L3.70973978,6.77472119 L6.90989991,18.0027261 L6.9302831,18.0237918 L6.99143266,18.0659232 L10.5584901,6.77472119 L10.8846211,6.47980173 L14.1459308,6.47980173 L14.4720618,6.77472119 L18.0595024,18.1291202 L18.0798856,18.1291202 L21.2800458,6.77472119 L21.6061767,6.47980173 L24.7248041,6.47980173 Z M60.0080984,6.47980173 L60.2119302,6.77472119 L53.8931427,22.7635688 L53.5262454,23.0795539 L50.631833,23.0795539 L50.2649357,22.7635688 L44.0072977,6.77472119 L44.2111295,6.47980173 L47.4112897,6.47980173 L47.7578038,6.77472119 L52.0994224,18.6136307 L52.1401887,18.5925651 L56.5225736,6.77472119 L56.8690878,6.47980173 L60.0080984,6.47980173 Z M76.1923477,15.6644362 L64.3701001,15.6223048 C64.4923992,17.0337051 64.9815957,18.0237918 65.8376894,18.8453532 C66.7345496,19.7090458 67.8148585,20.151425 69.0174664,20.151425 C70.8723363,20.151425 71.9934115,19.4351921 72.7272062,17.9184634 L73.1348699,17.6024783 L76.0700486,17.6024783 L76.2942637,17.9184634 C75.8662168,19.8143742 74.6228424,21.2047088 73.4406177,22.0473358 C72.2583929,22.9110285 70.7908035,23.332342 69.078616,23.332342 C66.7141664,23.332342 64.7573806,22.5107807 63.2694081,20.8887237 C61.7814355,19.2666667 61.0272576,17.2022305 61.0272576,14.7375465 C61.0272576,12.4203222 61.7406691,10.3769517 63.1878753,8.69169765 C64.6350815,7.00644362 66.5103346,6.14275093 68.752485,6.14275093 C71.0761681,6.14275093 72.9718044,6.94324659 74.3782442,8.50210657 C75.784684,10.0609665 76.4980955,12.2939281 76.4980955,14.8850062 L76.4980955,15.3695167 L76.1923477,15.6644362 Z M64.5739319,12.7152416 L72.9718044,12.7152416 C72.6456734,11.3249071 71.504215,9.30260223 68.752485,9.30260223 C66.6734001,9.30260223 65.0835116,10.7561338 64.5739319,12.7152416 Z M38.9115013,6.47980173 L38.9115013,6.45873606 L41.6020818,6.45873606 L41.9078296,6.77472119 L41.9078296,22.8057001 L41.6020818,23.1216853 L38.9318845,23.1216853 L38.6261367,22.8057001 L38.6261367,21.0993804 C38.6057535,21.1204461 38.5446039,21.0783147 38.5242208,21.0993804 C38.116557,21.6260223 37.5865942,22.0684015 36.9547155,22.4686493 C36.79165,22.5739777 36.6082013,22.6582404 36.4451358,22.7425031 C35.5686589,23.1848823 34.5902659,23.395539 33.5099571,23.395539 C31.4920217,23.395539 29.7186846,22.552912 28.2510952,20.9097893 C26.7835059,19.2666667 26.0497112,17.2022305 26.0497112,14.7796778 C26.0497112,12.3571252 26.7835059,10.292689 28.2510952,8.64956629 C29.7186846,7.00644362 31.4920217,6.1638166 33.5099571,6.1638166 C34.5902659,6.1638166 35.589042,6.37447336 36.465519,6.81685254 C36.6285845,6.90111524 36.79165,6.98537794 36.9343323,7.06964064 C37.5865942,7.46988848 38.1369402,7.95439901 38.5446039,8.50210657 L38.6057535,8.43890954 L38.6057535,6.79578686 L38.9115013,6.47980173 Z M37.2604633,18.7400248 C37.8515756,18.1080545 38.2592393,17.3075589 38.4630712,16.3174721 L38.4630712,13.1154895 C38.2388562,12.1675341 37.8515756,11.3881041 37.2604633,10.7350682 C36.3432199,9.74498141 35.2629111,9.26047088 33.9787704,9.26047088 C32.6946297,9.26047088 31.7773863,9.76604709 30.860143,10.7561338 C29.9632828,11.7672862 29.4944695,13.0944238 29.4944695,14.7375465 C29.4944695,16.4017348 29.9428996,17.7288724 30.860143,18.7189591 C31.7773863,19.7301115 32.7150129,20.2146221 33.9787704,20.2146221 C35.2832943,20.2146221 36.3636031,19.7301115 37.2604633,18.7400248 Z M87.5050157,13.4736059 C90.8682413,14.2319703 92.1931484,15.7908302 92.1931484,18.1923172 C92.1931484,19.9828996 91.0924564,23.395539 85.6909122,23.395539 C80.9212468,23.395539 78.9236946,20.7833953 78.6587132,18.0027261 L78.8829282,17.686741 L81.8792565,17.686741 L82.2461538,18.0027261 C82.3073034,19.245601 83.5914441,20.2988848 85.7112954,20.2988848 C87.9942122,20.2988848 88.8706892,19.2034696 88.8706892,18.2976456 C88.8706892,17.3075589 88.1776609,16.71772 86.5266228,16.3385378 C85.0794166,16.001487 83.2653131,15.5801735 83.2653131,15.5801735 C79.4740406,14.6743494 78.9033114,12.757373 78.9033114,11.135316 C78.9033114,9.19727385 80.4524335,6.18488228 85.4055476,6.18488228 C90.1548299,6.18488228 91.9689334,8.77596035 91.9689334,10.9457249 L91.7447183,11.2406444 L88.8095396,11.2406444 L88.4630255,10.9246592 C88.4630255,10.1030979 87.3419502,9.17620818 85.3240149,9.17620818 C83.2653131,9.17620818 82.3073034,10.0399009 82.3073034,11.072119 C82.3073034,12.04114 82.9799485,12.4413879 84.3048556,12.757373 C85.7520618,13.0944238 87.5050157,13.4736059 87.5050157,13.4736059 Z" id="Combined-Shape" fill="#FFFFFF"></path>
        </g>
    </g>
</svg>