<?xml version="1.0" encoding="UTF-8"?>
<svg width="220px" height="30px" viewBox="0 0 220 30" version="1.1" xmlns="http://www.w3.org/2000/svg" xmlns:xlink="http://www.w3.org/1999/xlink">
    <!-- Generator: Sketch 52.5 (67469) - http://www.bohemiancoding.com/sketch -->
    <title>logo/waves220-black</title>
    <desc>Created with Sketch.</desc>
    <g id="logo/waves220-black" stroke="none" stroke-width="1" fill="none" fill-rule="evenodd">
        <polygon id="brand-elem" fill="#1F5AF6" transform="translate(122.613487, 7.442379) rotate(45.000000) translate(-122.613487, -7.442379) " points="117.755495 2.53531599 127.47148 2.53531599 127.47148 12.3494424 117.755495 12.3494424"></polygon>
        <path d="M142.518781,29.1082082 C136.150394,29.1082082 132.255167,24.316461 132.255167,17.4843569 C132.255167,10.6522528 136.150394,5.89142007 142.518781,5.89142007 C148.887167,5.89142007 152.782394,10.6522528 152.782394,17.4843569 C152.782394,24.316461 148.887167,29.1082082 142.518781,29.1082082 Z M142.518781,27.1296803 C147.125041,27.1296803 150.587465,23.636342 150.587465,17.4843569 C150.587465,11.3323717 147.125041,7.86994796 142.518781,7.86994796 C137.91252,7.86994796 134.450097,11.3323717 134.450097,17.4843569 C134.450097,23.636342 137.91252,27.1296803 142.518781,27.1296803 Z M163.633383,14.0219331 C163.324238,13.9910186 163.046007,13.9910186 162.767777,13.9910186 C159.336268,13.9910186 158.223346,16.4641784 158.223346,19.9884312 L158.223346,28.7063197 L156.337561,28.7063197 L156.337561,12.0743197 L158.161517,12.0743197 L158.161517,15.1039405 C158.903465,13.1563271 161.06748,11.9506617 163.076922,11.9506617 C163.231494,11.9506617 163.447896,11.9506617 163.633383,11.9815762 L163.633383,14.0219331 Z M176.431985,26.1713309 C175.349978,27.9334572 173.278706,29.1082082 170.187257,29.1082082 C167.095807,29.1082082 164.684476,27.3151673 164.684476,24.563777 C164.684476,20.7922082 168.394216,19.4010558 176.401071,18.5972788 L176.401071,18.0099033 C176.401071,14.2383346 174.175227,13.4036431 171.763896,13.4036431 C168.950677,13.4036431 167.250379,14.9802825 167.095807,17.1442974 L165.086364,17.1442974 C165.519167,13.8673606 168.177814,11.7033457 171.887554,11.7033457 C175.751866,11.7033457 178.31777,13.3108996 178.31777,18.2572193 C178.31777,20.5448922 178.286855,22.0597026 178.286855,23.389026 C178.286855,25.2748104 178.379599,26.9132788 178.472342,28.7063197 L176.524729,28.7063197 L176.431985,26.1713309 Z M170.620059,27.4079108 C173.711509,27.4079108 176.493814,25.8312714 176.493814,21.1013532 L176.493814,20.2975762 C169.723539,21.0395242 166.817576,21.9360446 166.817576,24.5328625 C166.817576,26.2949888 168.42513,27.4079108 170.620059,27.4079108 Z M195.50623,17.4225279 L193.496788,17.4225279 C192.878498,14.9184535 190.89997,13.5582156 188.488639,13.5582156 C185.613591,13.5582156 183.078602,15.8458885 183.078602,20.4212342 C183.078602,25.1511524 185.613591,27.3460818 188.519554,27.3460818 C191.363688,27.3460818 193.156729,25.5221264 193.620446,23.450855 L195.660803,23.450855 C194.980684,26.8823643 192.198379,29.1082082 188.519554,29.1082082 C183.789636,29.1082082 181.038245,25.5839554 181.038245,20.4521487 C181.038245,15.2894275 183.82055,11.7960892 188.674126,11.7960892 C192.445695,11.7960892 195.011599,14.4238216 195.50623,17.4225279 Z M200.668952,28.7063197 L198.752253,28.7063197 L198.752253,6.29330855 L200.668952,6.29330855 L200.668952,28.7063197 Z M204.007717,20.4521487 C204.007717,15.073026 207.346483,11.7960892 211.798171,11.7960892 C216.497175,11.7960892 219.464967,15.753145 219.217651,20.9467807 L205.986245,20.9467807 C206.048074,24.9656654 208.583063,27.3460818 211.983658,27.3460818 C214.580476,27.3460818 216.404431,26.0167584 217.053636,23.7290855 L219.063078,23.7290855 C218.259301,27.1605948 215.507911,29.1082082 211.86,29.1082082 C206.975509,29.1082082 204.007717,25.6148699 204.007717,20.4521487 Z M206.048074,19.1846543 L217.115465,19.1846543 C217.115465,16.3714349 215.106022,13.5273011 211.767257,13.5273011 C208.675807,13.5273011 206.449963,15.505829 206.048074,19.1846543 Z M30.219205,7.91975768 L30.4683329,8.28021479 L24.3647012,27.8221396 L23.9411839,28.2083437 L20.0547898,28.2083437 L19.6312725,27.8221396 L15.2466228,13.8415531 L15.1469717,13.8415531 L10.7872348,27.8221396 L10.3637175,28.2083437 L6.52714898,28.2083437 L6.10363168,27.8221396 L-5.5067062e-13,8.28021479 L0.249127824,7.91975768 L4.13552188,7.91975768 L4.53412639,8.28021479 L8.44543323,22.003332 L8.47034601,22.0290789 L8.54508436,22.0805728 L12.9048213,8.28021479 L13.3034258,7.91975768 L17.289471,7.91975768 L17.6880755,8.28021479 L22.0727252,22.1578136 L22.097638,22.1578136 L26.0089448,8.28021479 L26.4075493,7.91975768 L30.219205,7.91975768 Z M73.3432313,7.91975768 L73.5923592,8.28021479 L65.8693966,27.8221396 L65.4209665,28.2083437 L61.8833514,28.2083437 L61.4349214,27.8221396 L53.7866972,8.28021479 L54.035825,7.91975768 L57.9471318,7.91975768 L58.3706491,8.28021479 L63.6770718,22.7499931 L63.7268973,22.7242462 L69.0831456,8.28021479 L69.5066629,7.91975768 L73.3432313,7.91975768 Z M93.1239806,19.145422 L78.6745668,19.0939281 C78.8240435,20.8189729 79.4219502,22.0290789 80.4682871,23.0332094 C81.5644495,24.0888338 82.884827,24.6295195 84.3546812,24.6295195 C86.6217444,24.6295195 87.9919474,23.7541236 88.8888075,21.9003442 L89.3870632,21.5141402 L92.9745039,21.5141402 L93.2485445,21.9003442 C92.725376,24.2175685 91.2056963,25.9168663 89.7607549,26.9467438 C88.3158136,28.0023682 86.5220932,28.5173069 84.4294195,28.5173069 C81.5395367,28.5173069 79.1479096,27.5131764 77.3292765,25.5306623 C75.5106434,23.5481481 74.5888705,21.0249484 74.5888705,18.0125568 C74.5888705,15.1803938 75.4608178,12.6829409 77.2296254,10.623186 C78.9984329,8.56343109 81.2904089,7.50780669 84.030815,7.50780669 C86.8708722,7.50780669 89.1877609,8.48619028 90.9067429,10.3914636 C92.6257249,12.2967369 93.4976723,15.0259122 93.4976723,18.1927854 L93.4976723,18.7849649 L93.1239806,19.145422 Z M78.9236946,15.5408509 L89.1877609,15.5408509 C88.7891564,13.8415531 87.3940406,11.3698472 84.030815,11.3698472 C81.4897112,11.3698472 79.5465142,13.1463858 78.9236946,15.5408509 Z M47.5585016,7.91975768 L47.5585016,7.89401074 L50.8469888,7.89401074 L51.2206806,8.28021479 L51.2206806,27.8736335 L50.8469888,28.2598375 L47.5834144,28.2598375 L47.2097226,27.8736335 L47.2097226,25.7881316 C47.1848098,25.8138786 47.1100715,25.7623847 47.0851587,25.7881316 C46.5869031,26.431805 45.9391707,26.9724907 45.1668745,27.4616825 C44.9675722,27.5904172 44.7433572,27.6934049 44.5440549,27.7963927 C43.4728053,28.3370783 42.2769917,28.5945477 40.9566142,28.5945477 C38.4902488,28.5945477 36.3228367,27.5646702 34.5291164,25.5564092 C32.7353961,23.5481481 31.8385359,21.0249484 31.8385359,18.0640507 C31.8385359,15.103153 32.7353961,12.5799532 34.5291164,10.5716921 C36.3228367,8.56343109 38.4902488,7.53355363 40.9566142,7.53355363 C42.2769917,7.53355363 43.497718,7.79102299 44.5689677,8.33170866 C44.7682699,8.43469641 44.9675722,8.53768415 45.1419617,8.6406719 C45.9391707,9.12986369 46.6118158,9.72204323 47.1100715,10.3914636 L47.1848098,10.3142228 L47.1848098,8.30596172 L47.5585016,7.91975768 Z M45.5405662,22.9044747 C46.2630369,22.1320666 46.7612925,21.1536831 47.0104204,19.943577 L47.0104204,16.0300427 C46.7363798,14.8714305 46.2630369,13.9187939 45.5405662,13.1206389 C44.419491,11.9105328 43.0991135,11.3183533 41.5296082,11.3183533 C39.9601029,11.3183533 38.8390277,11.9362798 37.7179525,13.1463858 C36.6217901,14.3822387 36.0487961,16.0042957 36.0487961,18.0125568 C36.0487961,20.0465648 36.5968773,21.6686218 37.7179525,22.8787278 C38.8390277,24.1145808 39.9850157,24.7067603 41.5296082,24.7067603 C43.1240263,24.7067603 44.4444038,24.1145808 45.5405662,22.9044747 Z M106.950575,16.4677406 C111.061184,17.3946303 112.680515,19.2999036 112.680515,22.2350544 C112.680515,24.423544 111.335224,28.5945477 104.733337,28.5945477 C98.9037461,28.5945477 96.4622934,25.4019276 96.1384272,22.003332 L96.4124678,21.6171279 L100.074647,21.6171279 L100.523077,22.003332 C100.597815,23.5224012 102.167321,24.809748 104.75825,24.809748 C107.548482,24.809748 108.619731,23.4709073 108.619731,22.3637891 C108.619731,21.1536831 107.772697,20.4327688 105.754761,19.969324 C103.985954,19.557373 101.768716,19.0424343 101.768716,19.0424343 C97.1349385,17.935316 96.4373806,15.5923448 96.4373806,13.6098306 C96.4373806,11.2411125 98.3307521,7.55930056 104.384558,7.55930056 C110.189236,7.55930056 112.406474,10.7261738 112.406474,13.3781082 L112.132434,13.7385653 L108.544993,13.7385653 L108.121476,13.3523613 C108.121476,12.3482308 106.751273,11.2153656 104.284907,11.2153656 C101.768716,11.2153656 100.597815,12.2709899 100.597815,13.5325898 C100.597815,14.7169489 101.419937,15.2061407 103.039268,15.5923448 C104.808075,16.0042957 106.950575,16.4677406 106.950575,16.4677406 Z" id="Combined-Shape" fill="#151E36"></path>
    </g>
</svg>